<mxfile host="app.diagrams.net" modified="2022-02-11T10:20:31.225Z" agent="5.0 (Macintosh; Intel Mac OS X 10_15_7) AppleWebKit/537.36 (KHTML, like Gecko) Chrome/97.0.4692.71 Safari/537.36" etag="LCzIgVWVohmydxXgxiLp" version="16.5.4" type="github">
  <diagram id="C5RBs43oDa-KdzZeNtuy" name="Page-1">
    <mxGraphModel dx="786" dy="598" grid="1" gridSize="10" guides="1" tooltips="1" connect="1" arrows="1" fold="1" page="1" pageScale="1" pageWidth="827" pageHeight="1169" math="0" shadow="0">
      <root>
        <mxCell id="WIyWlLk6GJQsqaUBKTNV-0" />
        <mxCell id="WIyWlLk6GJQsqaUBKTNV-1" parent="WIyWlLk6GJQsqaUBKTNV-0" />
        <mxCell id="jDIkqBnFbOXm59YwIrAy-0" value="시작" style="ellipse;whiteSpace=wrap;html=1;" vertex="1" parent="WIyWlLk6GJQsqaUBKTNV-1">
          <mxGeometry x="200" y="40" width="120" height="80" as="geometry" />
        </mxCell>
        <mxCell id="jDIkqBnFbOXm59YwIrAy-1" value="끝" style="ellipse;whiteSpace=wrap;html=1;" vertex="1" parent="WIyWlLk6GJQsqaUBKTNV-1">
          <mxGeometry x="860" y="900" width="120" height="80" as="geometry" />
        </mxCell>
        <mxCell id="jDIkqBnFbOXm59YwIrAy-2" value="width: 11&lt;br&gt;height: 8" style="rounded=0;whiteSpace=wrap;html=1;" vertex="1" parent="WIyWlLk6GJQsqaUBKTNV-1">
          <mxGeometry x="200" y="160" width="120" height="50" as="geometry" />
        </mxCell>
        <mxCell id="jDIkqBnFbOXm59YwIrAy-3" value="" style="endArrow=classic;html=1;rounded=0;exitX=0.5;exitY=1;exitDx=0;exitDy=0;entryX=0.5;entryY=0;entryDx=0;entryDy=0;" edge="1" parent="WIyWlLk6GJQsqaUBKTNV-1" source="jDIkqBnFbOXm59YwIrAy-0" target="jDIkqBnFbOXm59YwIrAy-2">
          <mxGeometry width="50" height="50" relative="1" as="geometry">
            <mxPoint x="260" y="170" as="sourcePoint" />
            <mxPoint x="310" y="120" as="targetPoint" />
          </mxGeometry>
        </mxCell>
        <mxCell id="jDIkqBnFbOXm59YwIrAy-4" value="문자 &quot;*&quot; 출력" style="rounded=0;whiteSpace=wrap;html=1;" vertex="1" parent="WIyWlLk6GJQsqaUBKTNV-1">
          <mxGeometry x="200" y="240" width="120" height="60" as="geometry" />
        </mxCell>
        <mxCell id="jDIkqBnFbOXm59YwIrAy-5" value="" style="endArrow=classic;html=1;rounded=0;exitX=0.5;exitY=1;exitDx=0;exitDy=0;" edge="1" parent="WIyWlLk6GJQsqaUBKTNV-1" source="jDIkqBnFbOXm59YwIrAy-2">
          <mxGeometry width="50" height="50" relative="1" as="geometry">
            <mxPoint x="240" y="230" as="sourcePoint" />
            <mxPoint x="260" y="240" as="targetPoint" />
            <Array as="points">
              <mxPoint x="259.5" y="240" />
            </Array>
          </mxGeometry>
        </mxCell>
        <mxCell id="jDIkqBnFbOXm59YwIrAy-7" value="내부 반복문의&lt;br&gt;실행횟수가 11보다 작은가?" style="rhombus;whiteSpace=wrap;html=1;" vertex="1" parent="WIyWlLk6GJQsqaUBKTNV-1">
          <mxGeometry x="160" y="330" width="200" height="80" as="geometry" />
        </mxCell>
        <mxCell id="jDIkqBnFbOXm59YwIrAy-8" value="" style="endArrow=classic;html=1;rounded=0;exitX=0.5;exitY=1;exitDx=0;exitDy=0;entryX=0.5;entryY=0;entryDx=0;entryDy=0;" edge="1" parent="WIyWlLk6GJQsqaUBKTNV-1" source="jDIkqBnFbOXm59YwIrAy-7" target="jDIkqBnFbOXm59YwIrAy-9">
          <mxGeometry width="50" height="50" relative="1" as="geometry">
            <mxPoint x="280" y="440" as="sourcePoint" />
            <mxPoint x="330" y="390" as="targetPoint" />
          </mxGeometry>
        </mxCell>
        <mxCell id="jDIkqBnFbOXm59YwIrAy-9" value="다시 반복한다." style="rounded=0;whiteSpace=wrap;html=1;" vertex="1" parent="WIyWlLk6GJQsqaUBKTNV-1">
          <mxGeometry x="170" y="460" width="180" height="60" as="geometry" />
        </mxCell>
        <mxCell id="jDIkqBnFbOXm59YwIrAy-10" value="Yes" style="text;html=1;strokeColor=none;fillColor=none;align=center;verticalAlign=middle;whiteSpace=wrap;rounded=0;" vertex="1" parent="WIyWlLk6GJQsqaUBKTNV-1">
          <mxGeometry x="190" y="420" width="60" height="30" as="geometry" />
        </mxCell>
        <mxCell id="jDIkqBnFbOXm59YwIrAy-11" value="No" style="text;html=1;strokeColor=none;fillColor=none;align=center;verticalAlign=middle;whiteSpace=wrap;rounded=0;" vertex="1" parent="WIyWlLk6GJQsqaUBKTNV-1">
          <mxGeometry x="390" y="340" width="60" height="20" as="geometry" />
        </mxCell>
        <mxCell id="jDIkqBnFbOXm59YwIrAy-13" value="내부 반복문을 탈출 후,&lt;br&gt;외부 반복문을 다시 실행한다." style="rounded=0;whiteSpace=wrap;html=1;" vertex="1" parent="WIyWlLk6GJQsqaUBKTNV-1">
          <mxGeometry x="170" y="585" width="180" height="60" as="geometry" />
        </mxCell>
        <mxCell id="jDIkqBnFbOXm59YwIrAy-17" value="외부반복문의 실행횟수가&lt;br&gt;8보다 작은가?" style="rhombus;whiteSpace=wrap;html=1;" vertex="1" parent="WIyWlLk6GJQsqaUBKTNV-1">
          <mxGeometry x="420" y="585" width="200" height="60" as="geometry" />
        </mxCell>
        <mxCell id="jDIkqBnFbOXm59YwIrAy-21" value="" style="endArrow=classic;html=1;rounded=0;exitX=1;exitY=0.5;exitDx=0;exitDy=0;entryX=0.5;entryY=0;entryDx=0;entryDy=0;" edge="1" parent="WIyWlLk6GJQsqaUBKTNV-1" source="jDIkqBnFbOXm59YwIrAy-7" target="jDIkqBnFbOXm59YwIrAy-17">
          <mxGeometry width="50" height="50" relative="1" as="geometry">
            <mxPoint x="414" y="410" as="sourcePoint" />
            <mxPoint x="464" y="360" as="targetPoint" />
            <Array as="points">
              <mxPoint x="520" y="370" />
            </Array>
          </mxGeometry>
        </mxCell>
        <mxCell id="jDIkqBnFbOXm59YwIrAy-22" value="" style="endArrow=classic;html=1;rounded=0;entryX=1;entryY=0.5;entryDx=0;entryDy=0;exitX=0;exitY=0.5;exitDx=0;exitDy=0;" edge="1" parent="WIyWlLk6GJQsqaUBKTNV-1" source="jDIkqBnFbOXm59YwIrAy-17" target="jDIkqBnFbOXm59YwIrAy-13">
          <mxGeometry width="50" height="50" relative="1" as="geometry">
            <mxPoint x="390" y="570" as="sourcePoint" />
            <mxPoint x="440" y="520" as="targetPoint" />
          </mxGeometry>
        </mxCell>
        <mxCell id="jDIkqBnFbOXm59YwIrAy-23" value="Yes" style="text;html=1;strokeColor=none;fillColor=none;align=center;verticalAlign=middle;whiteSpace=wrap;rounded=0;" vertex="1" parent="WIyWlLk6GJQsqaUBKTNV-1">
          <mxGeometry x="360" y="585" width="60" height="30" as="geometry" />
        </mxCell>
        <mxCell id="jDIkqBnFbOXm59YwIrAy-26" value="" style="endArrow=classic;html=1;rounded=0;exitX=0.5;exitY=1;exitDx=0;exitDy=0;entryX=0.5;entryY=0;entryDx=0;entryDy=0;" edge="1" parent="WIyWlLk6GJQsqaUBKTNV-1" source="jDIkqBnFbOXm59YwIrAy-4" target="jDIkqBnFbOXm59YwIrAy-7">
          <mxGeometry width="50" height="50" relative="1" as="geometry">
            <mxPoint x="390" y="410" as="sourcePoint" />
            <mxPoint x="440" y="360" as="targetPoint" />
          </mxGeometry>
        </mxCell>
        <mxCell id="jDIkqBnFbOXm59YwIrAy-27" value="" style="endArrow=classic;html=1;rounded=0;exitX=0;exitY=0.5;exitDx=0;exitDy=0;" edge="1" parent="WIyWlLk6GJQsqaUBKTNV-1" source="jDIkqBnFbOXm59YwIrAy-13">
          <mxGeometry width="50" height="50" relative="1" as="geometry">
            <mxPoint x="320" y="460" as="sourcePoint" />
            <mxPoint x="260" y="230" as="targetPoint" />
            <Array as="points">
              <mxPoint x="100" y="615" />
              <mxPoint x="100" y="230" />
            </Array>
          </mxGeometry>
        </mxCell>
        <mxCell id="jDIkqBnFbOXm59YwIrAy-28" value="중첩 반복문을 탈출 후,&lt;br&gt;다음 함수를 호출한다." style="rounded=0;whiteSpace=wrap;html=1;" vertex="1" parent="WIyWlLk6GJQsqaUBKTNV-1">
          <mxGeometry x="170" y="720" width="180" height="60" as="geometry" />
        </mxCell>
        <mxCell id="jDIkqBnFbOXm59YwIrAy-29" value="" style="endArrow=classic;html=1;rounded=0;exitX=0.5;exitY=1;exitDx=0;exitDy=0;entryX=1;entryY=0.5;entryDx=0;entryDy=0;" edge="1" parent="WIyWlLk6GJQsqaUBKTNV-1" source="jDIkqBnFbOXm59YwIrAy-17" target="jDIkqBnFbOXm59YwIrAy-28">
          <mxGeometry width="50" height="50" relative="1" as="geometry">
            <mxPoint x="480" y="770" as="sourcePoint" />
            <mxPoint x="530" y="720" as="targetPoint" />
            <Array as="points">
              <mxPoint x="520" y="750" />
            </Array>
          </mxGeometry>
        </mxCell>
        <mxCell id="jDIkqBnFbOXm59YwIrAy-30" value="width: 11&lt;br&gt;height: 4" style="rounded=0;whiteSpace=wrap;html=1;" vertex="1" parent="WIyWlLk6GJQsqaUBKTNV-1">
          <mxGeometry x="860" y="200" width="120" height="40" as="geometry" />
        </mxCell>
        <mxCell id="jDIkqBnFbOXm59YwIrAy-31" value="No" style="text;html=1;strokeColor=none;fillColor=none;align=center;verticalAlign=middle;whiteSpace=wrap;rounded=0;" vertex="1" parent="WIyWlLk6GJQsqaUBKTNV-1">
          <mxGeometry x="460" y="670" width="60" height="20" as="geometry" />
        </mxCell>
        <mxCell id="jDIkqBnFbOXm59YwIrAy-32" value="" style="endArrow=classic;html=1;rounded=0;exitX=0.5;exitY=1;exitDx=0;exitDy=0;entryX=0.5;entryY=0;entryDx=0;entryDy=0;" edge="1" parent="WIyWlLk6GJQsqaUBKTNV-1" source="jDIkqBnFbOXm59YwIrAy-28" target="jDIkqBnFbOXm59YwIrAy-30">
          <mxGeometry width="50" height="50" relative="1" as="geometry">
            <mxPoint x="250" y="830" as="sourcePoint" />
            <mxPoint x="300" y="780" as="targetPoint" />
            <Array as="points">
              <mxPoint x="260" y="920" />
              <mxPoint x="720" y="920" />
              <mxPoint x="720" y="120" />
              <mxPoint x="920" y="120" />
            </Array>
          </mxGeometry>
        </mxCell>
        <mxCell id="jDIkqBnFbOXm59YwIrAy-66" value="문자열 &quot;| |&quot; 출력" style="rounded=0;whiteSpace=wrap;html=1;" vertex="1" parent="WIyWlLk6GJQsqaUBKTNV-1">
          <mxGeometry x="860" y="720" width="120" height="40" as="geometry" />
        </mxCell>
        <mxCell id="jDIkqBnFbOXm59YwIrAy-67" value="" style="endArrow=classic;html=1;rounded=0;entryX=0.5;entryY=0;entryDx=0;entryDy=0;" edge="1" parent="WIyWlLk6GJQsqaUBKTNV-1" target="jDIkqBnFbOXm59YwIrAy-82">
          <mxGeometry width="50" height="50" relative="1" as="geometry">
            <mxPoint x="920" y="390" as="sourcePoint" />
            <mxPoint x="370" y="990" as="targetPoint" />
          </mxGeometry>
        </mxCell>
        <mxCell id="jDIkqBnFbOXm59YwIrAy-68" value="외부 반복문의 실행횟수가&lt;br&gt;&amp;nbsp;4보다 작은가?" style="rhombus;whiteSpace=wrap;html=1;" vertex="1" parent="WIyWlLk6GJQsqaUBKTNV-1">
          <mxGeometry x="820" y="780" width="200" height="60" as="geometry" />
        </mxCell>
        <mxCell id="jDIkqBnFbOXm59YwIrAy-69" value="" style="endArrow=classic;html=1;rounded=0;exitX=0.5;exitY=1;exitDx=0;exitDy=0;entryX=0.5;entryY=0;entryDx=0;entryDy=0;" edge="1" parent="WIyWlLk6GJQsqaUBKTNV-1" source="jDIkqBnFbOXm59YwIrAy-66" target="jDIkqBnFbOXm59YwIrAy-68">
          <mxGeometry width="50" height="50" relative="1" as="geometry">
            <mxPoint x="980" y="920" as="sourcePoint" />
            <mxPoint x="1030" y="870" as="targetPoint" />
          </mxGeometry>
        </mxCell>
        <mxCell id="jDIkqBnFbOXm59YwIrAy-71" value="외부 반복문을 다시 실행한다." style="rounded=0;whiteSpace=wrap;html=1;" vertex="1" parent="WIyWlLk6GJQsqaUBKTNV-1">
          <mxGeometry x="830" y="860" width="180" height="30" as="geometry" />
        </mxCell>
        <mxCell id="jDIkqBnFbOXm59YwIrAy-72" value="" style="endArrow=classic;html=1;rounded=0;exitX=0.5;exitY=1;exitDx=0;exitDy=0;entryX=0.5;entryY=0;entryDx=0;entryDy=0;" edge="1" parent="WIyWlLk6GJQsqaUBKTNV-1" source="jDIkqBnFbOXm59YwIrAy-68" target="jDIkqBnFbOXm59YwIrAy-71">
          <mxGeometry width="50" height="50" relative="1" as="geometry">
            <mxPoint x="980" y="920" as="sourcePoint" />
            <mxPoint x="1030" y="870" as="targetPoint" />
          </mxGeometry>
        </mxCell>
        <mxCell id="jDIkqBnFbOXm59YwIrAy-75" value="Yes" style="text;html=1;strokeColor=none;fillColor=none;align=center;verticalAlign=middle;whiteSpace=wrap;rounded=0;" vertex="1" parent="WIyWlLk6GJQsqaUBKTNV-1">
          <mxGeometry x="870" y="830" width="60" height="30" as="geometry" />
        </mxCell>
        <mxCell id="jDIkqBnFbOXm59YwIrAy-76" value="" style="endArrow=classic;html=1;rounded=0;exitX=1;exitY=0.5;exitDx=0;exitDy=0;entryX=1;entryY=0.5;entryDx=0;entryDy=0;" edge="1" parent="WIyWlLk6GJQsqaUBKTNV-1" source="jDIkqBnFbOXm59YwIrAy-68" target="jDIkqBnFbOXm59YwIrAy-1">
          <mxGeometry width="50" height="50" relative="1" as="geometry">
            <mxPoint x="980" y="930" as="sourcePoint" />
            <mxPoint x="1030" y="880" as="targetPoint" />
            <Array as="points">
              <mxPoint x="1110" y="810" />
              <mxPoint x="1110" y="940" />
            </Array>
          </mxGeometry>
        </mxCell>
        <mxCell id="jDIkqBnFbOXm59YwIrAy-77" value="No" style="text;html=1;strokeColor=none;fillColor=none;align=center;verticalAlign=middle;whiteSpace=wrap;rounded=0;" vertex="1" parent="WIyWlLk6GJQsqaUBKTNV-1">
          <mxGeometry x="1030" y="780" width="60" height="30" as="geometry" />
        </mxCell>
        <mxCell id="jDIkqBnFbOXm59YwIrAy-78" value="space 상수에 5 저장" style="rounded=0;whiteSpace=wrap;html=1;" vertex="1" parent="WIyWlLk6GJQsqaUBKTNV-1">
          <mxGeometry x="860" y="280" width="120" height="40" as="geometry" />
        </mxCell>
        <mxCell id="jDIkqBnFbOXm59YwIrAy-79" value="" style="endArrow=classic;html=1;rounded=0;exitX=0.5;exitY=1;exitDx=0;exitDy=0;entryX=0.5;entryY=0;entryDx=0;entryDy=0;" edge="1" parent="WIyWlLk6GJQsqaUBKTNV-1" source="jDIkqBnFbOXm59YwIrAy-30" target="jDIkqBnFbOXm59YwIrAy-78">
          <mxGeometry width="50" height="50" relative="1" as="geometry">
            <mxPoint x="820" y="440" as="sourcePoint" />
            <mxPoint x="870" y="390" as="targetPoint" />
          </mxGeometry>
        </mxCell>
        <mxCell id="jDIkqBnFbOXm59YwIrAy-80" value="문자 &quot; &quot; 출력" style="rounded=0;whiteSpace=wrap;html=1;" vertex="1" parent="WIyWlLk6GJQsqaUBKTNV-1">
          <mxGeometry x="860" y="350" width="120" height="60" as="geometry" />
        </mxCell>
        <mxCell id="jDIkqBnFbOXm59YwIrAy-81" value="" style="endArrow=classic;html=1;rounded=0;exitX=0.5;exitY=1;exitDx=0;exitDy=0;entryX=0.5;entryY=0;entryDx=0;entryDy=0;" edge="1" parent="WIyWlLk6GJQsqaUBKTNV-1" source="jDIkqBnFbOXm59YwIrAy-78" target="jDIkqBnFbOXm59YwIrAy-80">
          <mxGeometry width="50" height="50" relative="1" as="geometry">
            <mxPoint x="790" y="440" as="sourcePoint" />
            <mxPoint x="840" y="390" as="targetPoint" />
          </mxGeometry>
        </mxCell>
        <mxCell id="jDIkqBnFbOXm59YwIrAy-82" value="내부 반복문의&lt;br&gt;실행횟수가 5보다 작은가?" style="rhombus;whiteSpace=wrap;html=1;" vertex="1" parent="WIyWlLk6GJQsqaUBKTNV-1">
          <mxGeometry x="820" y="440" width="200" height="80" as="geometry" />
        </mxCell>
        <mxCell id="jDIkqBnFbOXm59YwIrAy-83" value="" style="endArrow=classic;html=1;rounded=0;exitX=0.5;exitY=1;exitDx=0;exitDy=0;" edge="1" parent="WIyWlLk6GJQsqaUBKTNV-1" source="jDIkqBnFbOXm59YwIrAy-82" target="jDIkqBnFbOXm59YwIrAy-84">
          <mxGeometry width="50" height="50" relative="1" as="geometry">
            <mxPoint x="860" y="690" as="sourcePoint" />
            <mxPoint x="920" y="560" as="targetPoint" />
          </mxGeometry>
        </mxCell>
        <mxCell id="jDIkqBnFbOXm59YwIrAy-84" value="다시 반복한다." style="rounded=0;whiteSpace=wrap;html=1;" vertex="1" parent="WIyWlLk6GJQsqaUBKTNV-1">
          <mxGeometry x="860" y="550" width="120" height="50" as="geometry" />
        </mxCell>
        <mxCell id="jDIkqBnFbOXm59YwIrAy-85" value="Yes" style="text;html=1;strokeColor=none;fillColor=none;align=center;verticalAlign=middle;whiteSpace=wrap;rounded=0;" vertex="1" parent="WIyWlLk6GJQsqaUBKTNV-1">
          <mxGeometry x="860" y="520" width="60" height="30" as="geometry" />
        </mxCell>
        <mxCell id="jDIkqBnFbOXm59YwIrAy-86" value="" style="endArrow=classic;html=1;rounded=0;exitX=1;exitY=0.5;exitDx=0;exitDy=0;entryX=0.5;entryY=0;entryDx=0;entryDy=0;" edge="1" parent="WIyWlLk6GJQsqaUBKTNV-1" source="jDIkqBnFbOXm59YwIrAy-82" target="jDIkqBnFbOXm59YwIrAy-66">
          <mxGeometry width="50" height="50" relative="1" as="geometry">
            <mxPoint x="790" y="630" as="sourcePoint" />
            <mxPoint x="840" y="580" as="targetPoint" />
            <Array as="points">
              <mxPoint x="1120" y="480" />
              <mxPoint x="1120" y="680" />
              <mxPoint x="920" y="680" />
            </Array>
          </mxGeometry>
        </mxCell>
        <mxCell id="jDIkqBnFbOXm59YwIrAy-87" value="No" style="text;html=1;strokeColor=none;fillColor=none;align=center;verticalAlign=middle;whiteSpace=wrap;rounded=0;" vertex="1" parent="WIyWlLk6GJQsqaUBKTNV-1">
          <mxGeometry x="1030" y="450" width="60" height="30" as="geometry" />
        </mxCell>
        <mxCell id="jDIkqBnFbOXm59YwIrAy-88" value="" style="endArrow=classic;html=1;rounded=0;exitX=0;exitY=0.5;exitDx=0;exitDy=0;" edge="1" parent="WIyWlLk6GJQsqaUBKTNV-1" source="jDIkqBnFbOXm59YwIrAy-71">
          <mxGeometry width="50" height="50" relative="1" as="geometry">
            <mxPoint x="830" y="650" as="sourcePoint" />
            <mxPoint x="920" y="340" as="targetPoint" />
            <Array as="points">
              <mxPoint x="760" y="875" />
              <mxPoint x="760" y="340" />
            </Array>
          </mxGeometry>
        </mxCell>
      </root>
    </mxGraphModel>
  </diagram>
</mxfile>
